<?xml version="1.0" encoding="UTF-8"?>
<svg xmlns="http://www.w3.org/2000/svg" xmlns:xlink="http://www.w3.org/1999/xlink" width="375pt" height="374.999991pt" viewBox="0 0 375 374.999991" version="1.2">
<defs>
<clipPath id="clip1">
  <path d="M 76.53125 115.429688 L 226.179688 115.429688 L 226.179688 198.929688 L 76.53125 198.929688 Z M 76.53125 115.429688 "/>
</clipPath>
<clipPath id="clip2">
  <path d="M 21.433594 138.113281 L 354.054688 138.113281 L 354.054688 230.515625 L 21.433594 230.515625 Z M 21.433594 138.113281 "/>
</clipPath>
<clipPath id="clip3">
  <path d="M 21.433594 182 L 354.054688 182 L 354.054688 237 L 21.433594 237 Z M 21.433594 182 "/>
</clipPath>
<clipPath id="clip4">
  <path d="M 21.433594 176 L 153.902344 176 L 153.902344 232.175781 L 21.433594 232.175781 Z M 21.433594 176 "/>
</clipPath>
<clipPath id="clip5">
  <path d="M 21.433594 198.140625 L 90.78125 198.140625 L 90.78125 228 L 21.433594 228 Z M 21.433594 198.140625 "/>
</clipPath>
<clipPath id="clip6">
  <path d="M 264 215 L 327 215 L 327 259.570312 L 264 259.570312 Z M 264 215 "/>
</clipPath>
<clipPath id="clip7">
  <path d="M 21.433594 182.367188 L 354.054688 182.367188 L 354.054688 237 L 21.433594 237 Z M 21.433594 182.367188 "/>
</clipPath>
</defs>
<g id="surface1">
<g clip-path="url(#clip1)" clip-rule="nonzero">
<path style=" stroke:none;fill-rule:nonzero;fill:rgb(93.328857%,24.308777%,78.819275%);fill-opacity:1;" d="M 226.179688 190.253906 C 226.179688 191.476562 226.152344 192.703125 226.089844 193.925781 C 226.03125 195.148438 225.941406 196.367188 225.820312 197.585938 C 225.699219 198.804688 225.550781 200.019531 225.371094 201.230469 C 225.191406 202.441406 224.984375 203.648438 224.742188 204.851562 C 224.503906 206.050781 224.238281 207.246094 223.9375 208.433594 C 223.640625 209.621094 223.316406 210.800781 222.960938 211.972656 C 222.605469 213.144531 222.21875 214.308594 221.808594 215.460938 C 221.394531 216.613281 220.953125 217.753906 220.484375 218.886719 C 220.015625 220.019531 219.519531 221.136719 218.996094 222.246094 C 218.472656 223.351562 217.921875 224.445312 217.347656 225.523438 C 216.769531 226.605469 216.164062 227.671875 215.535156 228.71875 C 214.90625 229.769531 214.25 230.804688 213.570312 231.824219 C 212.890625 232.839844 212.1875 233.84375 211.457031 234.824219 C 210.726562 235.808594 209.972656 236.773438 209.195312 237.722656 C 208.421875 238.667969 207.621094 239.59375 206.796875 240.503906 C 205.976562 241.410156 205.132812 242.296875 204.265625 243.160156 C 203.398438 244.027344 202.511719 244.871094 201.605469 245.695312 C 200.699219 246.515625 199.773438 247.316406 198.824219 248.09375 C 197.878906 248.871094 196.914062 249.625 195.929688 250.351562 C 194.945312 251.082031 193.945312 251.785156 192.925781 252.46875 C 191.910156 253.148438 190.875 253.800781 189.824219 254.433594 C 188.773438 255.0625 187.707031 255.664062 186.628906 256.242188 C 185.550781 256.820312 184.457031 257.371094 183.347656 257.894531 C 182.242188 258.417969 181.121094 258.914062 179.992188 259.382812 C 178.859375 259.851562 177.71875 260.289062 176.566406 260.703125 C 175.410156 261.117188 174.25 261.5 173.078125 261.855469 C 171.90625 262.210938 170.726562 262.539062 169.539062 262.835938 C 168.351562 263.132812 167.15625 263.402344 165.953125 263.640625 C 164.753906 263.878906 163.546875 264.089844 162.335938 264.269531 C 161.125 264.449219 159.910156 264.597656 158.691406 264.71875 C 157.472656 264.835938 156.25 264.925781 155.027344 264.988281 C 153.804688 265.046875 152.582031 265.078125 151.355469 265.078125 C 150.132812 265.078125 148.910156 265.046875 147.683594 264.988281 C 146.460938 264.925781 145.242188 264.835938 144.023438 264.71875 C 142.804688 264.597656 141.589844 264.449219 140.378906 264.269531 C 139.167969 264.089844 137.960938 263.878906 136.757812 263.640625 C 135.558594 263.402344 134.363281 263.132812 133.175781 262.835938 C 131.988281 262.539062 130.808594 262.210938 129.636719 261.855469 C 128.464844 261.5 127.300781 261.117188 126.148438 260.703125 C 124.996094 260.289062 123.855469 259.851562 122.722656 259.382812 C 121.589844 258.914062 120.472656 258.417969 119.367188 257.894531 C 118.257812 257.371094 117.164062 256.820312 116.085938 256.242188 C 115.003906 255.664062 113.941406 255.0625 112.890625 254.433594 C 111.839844 253.800781 110.804688 253.148438 109.785156 252.46875 C 108.769531 251.785156 107.765625 251.082031 106.785156 250.351562 C 105.800781 249.625 104.835938 248.871094 103.886719 248.09375 C 102.941406 247.316406 102.015625 246.515625 101.109375 245.695312 C 100.199219 244.871094 99.3125 244.027344 98.449219 243.160156 C 97.582031 242.296875 96.738281 241.410156 95.914062 240.503906 C 95.09375 239.59375 94.292969 238.667969 93.515625 237.722656 C 92.738281 236.773438 91.988281 235.808594 91.257812 234.824219 C 90.527344 233.84375 89.824219 232.839844 89.140625 231.824219 C 88.460938 230.804688 87.808594 229.769531 87.175781 228.71875 C 86.546875 227.671875 85.945312 226.605469 85.367188 225.523438 C 84.789062 224.445312 84.238281 223.351562 83.714844 222.246094 C 83.191406 221.136719 82.695312 220.019531 82.226562 218.886719 C 81.757812 217.753906 81.320312 216.613281 80.90625 215.460938 C 80.492188 214.308594 80.109375 213.144531 79.753906 211.972656 C 79.398438 210.800781 79.070312 209.621094 78.773438 208.433594 C 78.476562 207.246094 78.207031 206.050781 77.96875 204.851562 C 77.730469 203.648438 77.523438 202.441406 77.34375 201.230469 C 77.164062 200.019531 77.011719 198.804688 76.894531 197.585938 C 76.773438 196.367188 76.683594 195.148438 76.621094 193.925781 C 76.5625 192.703125 76.53125 191.476562 76.53125 190.253906 C 76.53125 189.027344 76.5625 187.804688 76.621094 186.582031 C 76.683594 185.359375 76.773438 184.136719 76.894531 182.917969 C 77.011719 181.699219 77.164062 180.484375 77.34375 179.273438 C 77.523438 178.0625 77.730469 176.855469 77.96875 175.65625 C 78.207031 174.453125 78.476562 173.261719 78.773438 172.070312 C 79.070312 170.882812 79.398438 169.703125 79.753906 168.53125 C 80.109375 167.359375 80.492188 166.199219 80.90625 165.046875 C 81.320312 163.890625 81.757812 162.75 82.226562 161.617188 C 82.695312 160.488281 83.191406 159.367188 83.714844 158.261719 C 84.238281 157.152344 84.789062 156.0625 85.367188 154.980469 C 85.945312 153.902344 86.546875 152.835938 87.175781 151.785156 C 87.808594 150.734375 88.460938 149.699219 89.140625 148.683594 C 89.824219 147.664062 90.527344 146.664062 91.257812 145.679688 C 91.988281 144.695312 92.738281 143.730469 93.515625 142.785156 C 94.292969 141.839844 95.09375 140.910156 95.914062 140.003906 C 96.738281 139.097656 97.582031 138.210938 98.449219 137.34375 C 99.3125 136.476562 100.199219 135.632812 101.109375 134.8125 C 102.015625 133.988281 102.941406 133.191406 103.886719 132.414062 C 104.835938 131.636719 105.800781 130.882812 106.785156 130.152344 C 107.765625 129.421875 108.769531 128.71875 109.785156 128.039062 C 110.804688 127.359375 111.839844 126.703125 112.890625 126.074219 C 113.941406 125.445312 115.003906 124.839844 116.085938 124.261719 C 117.164062 123.6875 118.257812 123.136719 119.367188 122.613281 C 120.472656 122.089844 121.589844 121.59375 122.722656 121.125 C 123.855469 120.65625 124.996094 120.214844 126.148438 119.800781 C 127.300781 119.390625 128.464844 119.003906 129.636719 118.648438 C 130.808594 118.292969 131.988281 117.96875 133.175781 117.671875 C 134.363281 117.375 135.558594 117.105469 136.757812 116.867188 C 137.960938 116.628906 139.167969 116.417969 140.378906 116.238281 C 141.589844 116.058594 142.804688 115.910156 144.023438 115.789062 C 145.242188 115.667969 146.460938 115.578125 147.683594 115.519531 C 148.910156 115.457031 150.132812 115.429688 151.355469 115.429688 C 152.582031 115.429688 153.804688 115.457031 155.027344 115.519531 C 156.25 115.578125 157.472656 115.667969 158.691406 115.789062 C 159.910156 115.910156 161.125 116.058594 162.335938 116.238281 C 163.546875 116.417969 164.753906 116.628906 165.953125 116.867188 C 167.15625 117.105469 168.351562 117.375 169.539062 117.671875 C 170.726562 117.96875 171.90625 118.292969 173.078125 118.648438 C 174.25 119.003906 175.410156 119.390625 176.566406 119.800781 C 177.71875 120.214844 178.859375 120.65625 179.992188 121.125 C 181.121094 121.59375 182.242188 122.089844 183.347656 122.613281 C 184.457031 123.136719 185.550781 123.6875 186.628906 124.261719 C 187.707031 124.839844 188.773438 125.445312 189.824219 126.074219 C 190.875 126.703125 191.910156 127.359375 192.925781 128.039062 C 193.945312 128.71875 194.945312 129.421875 195.929688 130.152344 C 196.914062 130.882812 197.878906 131.636719 198.824219 132.414062 C 199.773438 133.191406 200.699219 133.988281 201.605469 134.8125 C 202.511719 135.632812 203.398438 136.476562 204.265625 137.34375 C 205.132812 138.210938 205.976562 139.097656 206.796875 140.003906 C 207.621094 140.910156 208.421875 141.839844 209.195312 142.785156 C 209.972656 143.730469 210.726562 144.695312 211.457031 145.679688 C 212.1875 146.664062 212.890625 147.664062 213.570312 148.683594 C 214.25 149.699219 214.90625 150.734375 215.535156 151.785156 C 216.164062 152.835938 216.769531 153.902344 217.347656 154.980469 C 217.921875 156.0625 218.472656 157.152344 218.996094 158.261719 C 219.519531 159.367188 220.015625 160.488281 220.484375 161.617188 C 220.953125 162.75 221.394531 163.890625 221.808594 165.046875 C 222.21875 166.199219 222.605469 167.359375 222.960938 168.53125 C 223.316406 169.703125 223.640625 170.882812 223.9375 172.070312 C 224.238281 173.261719 224.503906 174.453125 224.742188 175.65625 C 224.984375 176.855469 225.191406 178.0625 225.371094 179.273438 C 225.550781 180.484375 225.699219 181.699219 225.820312 182.917969 C 225.941406 184.136719 226.03125 185.359375 226.089844 186.582031 C 226.152344 187.804688 226.179688 189.027344 226.179688 190.253906 Z M 226.179688 190.253906 "/>
</g>
<g clip-path="url(#clip2)" clip-rule="nonzero">
<path style=" stroke:none;fill-rule:nonzero;fill:rgb(29.798889%,4.309082%,81.959534%);fill-opacity:1;" d="M 95.101562 230.246094 C 150.496094 230.246094 197.335938 170.148438 216.4375 175.628906 C 225.53125 178.199219 230.09375 174.753906 234.128906 171.320312 C 239.703125 166.554688 244.253906 161.789062 258.378906 172.972656 C 271.753906 183.550781 279.660156 170.515625 288.683594 157.480469 C 296.082031 146.796875 304.234375 136.113281 316.765625 138.429688 C 344.589844 143.585938 354.054688 198.535156 354.054688 198.535156 L 21.433594 198.535156 C 21.433594 198.535156 56.480469 230.246094 95.101562 230.246094 "/>
</g>
<g clip-path="url(#clip3)" clip-rule="nonzero">
<path style=" stroke:none;fill-rule:nonzero;fill:rgb(89.408875%,19.999695%,59.21936%);fill-opacity:1;" d="M 33.0625 206.335938 C 59.140625 223.855469 93.855469 221.28125 117.027344 200.113281 C 117.609375 199.53125 118.273438 199.03125 118.851562 198.535156 L 21.433594 198.535156 L 33.0625 206.335938 M 225.824219 216.796875 C 248.414062 239.292969 283.546875 243.195312 310.453125 226.179688 L 354.054688 198.535156 L 207.136719 198.535156 C 208.464844 199.695312 209.878906 200.941406 211.125 202.1875 L 225.824219 216.796875 M 118.851562 198.535156 L 207.136719 198.535156 C 181.890625 177.035156 144.433594 176.867188 118.851562 198.535156 "/>
</g>
<g clip-path="url(#clip4)" clip-rule="nonzero">
<path style=" stroke:none;fill-rule:nonzero;fill:rgb(0%,76.858521%,79.998779%);fill-opacity:1;" d="M 137.738281 176.457031 C 142.855469 176.457031 148.136719 178.332031 153.570312 182.765625 L 153.816406 182.96875 C 141.285156 184.664062 129.117188 189.84375 118.851562 198.535156 L 104.816406 198.535156 C 114.757812 186.679688 125.796875 176.449219 137.738281 176.457031 M 21.433594 198.535156 C 21.433594 198.535156 45.785156 220.566406 76.257812 227.902344 C 71.421875 230.828125 66.730469 232.054688 62.246094 232.054688 C 38.859375 232.054688 21.433594 198.535156 21.433594 198.535156 "/>
</g>
<g clip-path="url(#clip5)" clip-rule="nonzero">
<path style=" stroke:none;fill-rule:nonzero;fill:rgb(47.44873%,0%,100%);fill-opacity:1;" d="M 21.433594 198.535156 L 33.0625 206.335938 C 44.621094 214.101562 57.878906 217.921875 71.074219 217.921875 C 77.691406 217.921875 84.304688 216.957031 90.675781 215.050781 C 86.132812 220.007812 81.671875 224.335938 77.660156 227.007812 C 77.195312 227.320312 76.722656 227.621094 76.257812 227.902344 C 45.785156 220.566406 21.433594 198.535156 21.433594 198.535156 "/>
</g>
<path style=" stroke:none;fill-rule:nonzero;fill:rgb(0%,76.858521%,79.998779%);fill-opacity:1;" d="M 172.785156 198.535156 L 207.136719 198.535156 C 208.464844 199.695312 209.878906 200.941406 211.125 202.1875 L 225.824219 216.796875 C 229.160156 220.125 232.773438 223.042969 236.59375 225.550781 C 236.554688 225.566406 236.503906 225.582031 236.453125 225.59375 C 231.082031 227.34375 226.140625 228.136719 221.503906 228.136719 C 202.601562 228.136719 188.855469 214.894531 171.957031 199.109375 C 172.230469 198.917969 172.511719 198.726562 172.785156 198.535156 "/>
<path style=" stroke:none;fill-rule:nonzero;fill:rgb(47.44873%,0%,100%);fill-opacity:1;" d="M 171.339844 198.535156 L 172.785156 198.535156 C 172.511719 198.726562 172.230469 198.917969 171.957031 199.109375 C 171.75 198.917969 171.550781 198.726562 171.339844 198.535156 "/>
<g clip-path="url(#clip6)" clip-rule="nonzero">
<path style=" stroke:none;fill-rule:nonzero;fill:rgb(0%,76.858521%,79.998779%);fill-opacity:1;" d="M 326.605469 215.9375 C 315.210938 233.085938 308.734375 257.058594 290.933594 259.382812 C 289.941406 259.511719 289 259.570312 288.09375 259.570312 C 277.152344 259.570312 272.359375 250.652344 267.433594 241.730469 C 266.359375 239.792969 265.289062 237.851562 264.136719 235.996094 C 267.421875 236.480469 270.738281 236.722656 274.0625 236.722656 C 286.617188 236.722656 299.246094 233.265625 310.453125 226.179688 L 326.605469 215.9375 "/>
</g>
<g clip-path="url(#clip7)" clip-rule="nonzero">
<path style=" stroke:none;fill-rule:nonzero;fill:rgb(79.60968%,53.329468%,100%);fill-opacity:1;" d="M 153.816406 182.96875 C 160.195312 188.214844 165.925781 193.535156 171.339844 198.535156 L 118.851562 198.535156 C 129.117188 189.84375 141.285156 184.664062 153.816406 182.96875 M 21.433594 198.535156 L 104.816406 198.535156 C 100.308594 203.9375 95.449219 209.84375 90.675781 215.050781 C 84.304688 216.957031 77.691406 217.921875 71.074219 217.921875 C 57.878906 217.921875 44.621094 214.101562 33.0625 206.335938 L 21.433594 198.535156 M 171.339844 198.535156 L 207.136719 198.535156 L 171.339844 198.535156 M 207.136719 198.535156 L 354.054688 198.535156 C 341.261719 198.535156 333.128906 206.117188 326.605469 215.9375 L 310.453125 226.179688 C 299.246094 233.265625 286.617188 236.722656 274.0625 236.722656 C 270.738281 236.722656 267.421875 236.480469 264.136719 235.996094 C 260.015625 229.351562 254.972656 223.894531 246.011719 223.894531 C 243.273438 223.894531 240.15625 224.40625 236.59375 225.550781 C 232.773438 223.042969 229.160156 220.125 225.824219 216.796875 L 211.125 202.1875 C 209.878906 200.941406 208.464844 199.695312 207.136719 198.535156 "/>
</g>
</g>
</svg>